<mxfile host="app.diagrams.net" modified="2021-08-07T15:04:19.712Z" agent="5.0 (Windows NT 10.0; Win64; x64) AppleWebKit/537.36 (KHTML, like Gecko) Chrome/92.0.4515.131 Safari/537.36" etag="lZJbQzQUnfGmz8MjVa9m" version="14.9.5" type="github">
  <diagram id="cOsJj7fOWPS6FAk0XLpC" name="第 1 页">
    <mxGraphModel dx="1080" dy="690" grid="1" gridSize="10" guides="1" tooltips="1" connect="1" arrows="1" fold="1" page="1" pageScale="1" pageWidth="827" pageHeight="1169" math="0" shadow="0">
      <root>
        <mxCell id="0" />
        <mxCell id="1" parent="0" />
        <mxCell id="km66Z5qtLW2cSpxELFKR-3" value="" style="edgeStyle=orthogonalEdgeStyle;rounded=0;orthogonalLoop=1;jettySize=auto;html=1;" edge="1" parent="1" source="km66Z5qtLW2cSpxELFKR-1" target="km66Z5qtLW2cSpxELFKR-2">
          <mxGeometry relative="1" as="geometry" />
        </mxCell>
        <mxCell id="km66Z5qtLW2cSpxELFKR-1" value="" style="whiteSpace=wrap;html=1;aspect=fixed;" vertex="1" parent="1">
          <mxGeometry x="190" y="240" width="80" height="80" as="geometry" />
        </mxCell>
        <mxCell id="km66Z5qtLW2cSpxELFKR-2" value="" style="whiteSpace=wrap;html=1;" vertex="1" parent="1">
          <mxGeometry x="330" y="250" width="120" height="60" as="geometry" />
        </mxCell>
      </root>
    </mxGraphModel>
  </diagram>
</mxfile>
